<svg xmlns="http://www.w3.org/2000/svg" viewBox="0 0 70 70"><path d="M69.983 10.511C69.983 4.72 65.281.016 59.488.016H10.512C4.719.016.017 4.72.017 10.511V59.49c0 5.792 4.702 10.494 10.495 10.494h48.976c5.793 0 10.495-4.702 10.495-10.494V10.51z" fill="#46a6f1"/><path d="M38.261 47.833a1.981 1.981 0 00-.407-2.771L21.108 32.607a1.982 1.982 0 00-2.772.407L14.48 38.2a1.98 1.98 0 00.408 2.771l16.746 12.455a1.98 1.98 0 002.771-.407l3.857-5.186z" fill="#121212"/><path d="M50.997 16.44a1.981 1.981 0 00-2.771.41L26 46.826c-.65.877-.467 2.12.412 2.77l5.191 3.85c.878.651 2.12.466 2.77-.411L56.6 23.059a1.981 1.981 0 00-.411-2.77l-5.191-3.85z" fill="#121212"/></svg>