<svg xmlns="http://www.w3.org/2000/svg" viewBox="0 0 70 70"><path fill="white" d="M69.992 10.547C69.992 4.755 65.29.052 59.497.052H10.521C4.728.052.026 4.755.026 10.547v48.978c0 5.792 4.702 10.494 10.495 10.494h48.976c5.793 0 10.495-4.702 10.495-10.494V10.547z"/><path fill="rgb(155,155,155)" d="M69.992 10.547C69.992 4.755 65.29.052 59.497.052H10.521C4.728.052.026 4.755.026 10.547v48.978c0 5.792 4.702 10.494 10.495 10.494h48.976c5.793 0 10.495-4.702 10.495-10.494V10.547zm-2.484 0v48.978a8.015 8.015 0 01-8.01 8.01H10.52a8.015 8.015 0 01-8.011-8.01V10.547a8.015 8.015 0 018.01-8.01h48.977a8.015 8.015 0 018.011 8.01z"/></svg>