<svg xmlns="http://www.w3.org/2000/svg" viewBox="0 0 100 100"><path d="M38.155 19.062l10.563 10.564a6.188 6.188 0 004.376 1.811h37.125a3.093 3.093 0 013.093 3.094v43.313a3.093 3.093 0 01-3.093 3.093H9.78a3.093 3.093 0 01-3.094-3.093V22.156a3.093 3.093 0 013.094-3.094h28.374M9.78 12.875A9.281 9.281 0 00.5 22.156v55.688a9.281 9.281 0 009.281 9.28H90.22a9.281 9.281 0 009.28-9.28V34.53a9.281 9.281 0 00-9.28-9.281H53.094L42.53 14.687a6.188 6.188 0 00-4.375-1.812H9.78z" fill="#2e97e8" fill-rule="nonzero"/></svg>